<?xml version="1.0" encoding="UTF-8" standalone="no"?>
<!DOCTYPE svg PUBLIC "-//W3C//DTD SVG 1.1//EN" "http://www.w3.org/Graphics/SVG/1.1/DTD/svg11.dtd">
<svg width="100%" height="100%" viewBox="0 0 355 394" version="1.1" xmlns="http://www.w3.org/2000/svg" xmlns:xlink="http://www.w3.org/1999/xlink" xml:space="preserve" xmlns:serif="http://www.serif.com/" style="fill-rule:evenodd;clip-rule:evenodd;stroke-linecap:round;stroke-linejoin:round;stroke-miterlimit:1.5;">
    <g transform="matrix(1,0,0,1,-72.2105,-53)">
        <path d="M249.458,103C330.589,103 396.458,168.868 396.458,250C396.458,331.132 330.589,397 249.458,397C168.326,397 102.458,331.132 102.458,250C102.458,168.868 168.326,103 249.458,103ZM250,130C183.77,130 130,183.77 130,250C130,316.23 183.77,370 250,370C316.23,370 370,316.23 370,250C370,183.77 316.23,130 250,130Z"/>
        <g>
            <g transform="matrix(0.862069,0,0,0.862069,72.7334,23.6897)">
                <circle cx="205" cy="92" r="58"/>
            </g>
            <g transform="matrix(0.862069,0,0,0.862069,72.7334,317.69)">
                <circle cx="205" cy="92" r="58"/>
            </g>
        </g>
        <g transform="matrix(0.500725,-0.865606,0.865606,0.500725,-91.8537,340.751)">
            <g transform="matrix(0.862069,0,0,0.862069,72.7334,23.6897)">
                <circle cx="205" cy="92" r="58"/>
            </g>
            <g transform="matrix(0.862069,0,0,0.862069,72.7334,317.69)">
                <circle cx="205" cy="92" r="58"/>
            </g>
        </g>
        <g transform="matrix(0.500698,0.865622,-0.865622,0.500698,340.96,-91.1105)">
            <g transform="matrix(0.862069,0,0,0.862069,72.7334,23.6897)">
                <circle cx="205" cy="92" r="58"/>
            </g>
            <g transform="matrix(0.862069,0,0,0.862069,72.7334,317.69)">
                <circle cx="205" cy="92" r="58"/>
            </g>
        </g>
        <g transform="matrix(1,-0,-0,1,72.2105,53)">
            <path d="M163.398,168.911L177.247,197L191.409,169.068L163.398,168.911Z"/>
            <path d="M163.628,127.932L177.79,100L191.638,128.089L163.628,127.932Z"/>
            <path d="M177.372,174.592C177.46,158.922 177.577,138.078 177.664,122.408" style="fill:none;stroke:black;stroke-width:9.34px;"/>
        </g>
        <g transform="matrix(1,0,0,1,0.54244,97)">
            <g transform="matrix(1,-0,-0,1,71.668,-44)">
                <path d="M163.941,265.911L177.79,294L191.951,266.068L163.941,265.911Z"/>
                <path d="M164.17,224.932L178.332,197L192.181,225.089L164.17,224.932Z"/>
                <path d="M177.915,271.592C178.002,255.922 178.119,235.078 178.207,219.408" style="fill:none;stroke:black;stroke-width:9.34px;"/>
            </g>
        </g>
        <g transform="matrix(0.500381,-0.865805,0.865805,0.500381,-91.5466,341.356)">
            <g transform="matrix(0.500381,0.865805,-0.865805,0.500381,331.601,-2.5062)">
                <path d="M146.269,195.405L177.518,197.47L160.421,171.231L146.269,195.405Z"/>
                <path d="M110.904,174.701L93.806,148.463L125.055,150.528L110.904,174.701Z"/>
                <path d="M158.179,186.148C144.656,178.232 126.668,167.701 113.145,159.784" style="fill:none;stroke:black;stroke-width:9.34px;"/>
            </g>
            <g transform="matrix(1,0,0,1,0.54244,97)">
                <g transform="matrix(0.500381,0.865805,-0.865805,0.500381,331.059,-99.5062)">
                    <path d="M230.524,243.472L261.773,245.537L244.675,219.299L230.524,243.472Z"/>
                    <path d="M195.158,222.769L178.061,196.53L209.31,198.595L195.158,222.769Z"/>
                    <path d="M242.434,234.216C228.911,226.299 210.923,215.768 197.4,207.852" style="fill:none;stroke:black;stroke-width:9.34px;"/>
                </g>
            </g>
        </g>
        <g transform="matrix(0.499948,0.866055,-0.866055,0.499948,341.527,-91.5009)">
            <g transform="matrix(0.499948,-0.866055,0.866055,0.499948,-9.49845,305.486)">
                <path d="M194.921,170.494L177.518,196.53L208.789,194.831L194.921,170.494Z"/>
                <path d="M230.526,150.205L261.797,148.505L244.394,174.542L230.526,150.205Z"/>
                <path d="M196.988,185.436C210.603,177.678 228.713,167.358 242.327,159.6" style="fill:none;stroke:black;stroke-width:9.34px;"/>
            </g>
            <g transform="matrix(1,0,0,1,0.54244,97)">
                <g transform="matrix(0.499948,-0.866055,0.866055,0.499948,-10.0409,208.486)">
                    <path d="M111.185,219.458L93.782,245.495L125.053,243.795L111.185,219.458Z"/>
                    <path d="M146.79,199.169L178.061,197.47L160.658,223.506L146.79,199.169Z"/>
                    <path d="M113.252,234.4C126.866,226.642 144.976,216.322 158.591,208.564" style="fill:none;stroke:black;stroke-width:9.34px;"/>
                </g>
            </g>
        </g>
    </g>
</svg>
